<svg width="18" height="18" viewBox="0 0 18 18" fill="none" xmlns="http://www.w3.org/2000/svg">
<path d="M9.0013 0.61377C4.4013 0.61377 0.667969 4.3471 0.667969 8.9471C0.667969 13.5471 4.4013 17.2804 9.0013 17.2804C13.6013 17.2804 17.3346 13.5471 17.3346 8.9471C17.3346 4.3471 13.6013 0.61377 9.0013 0.61377ZM6.74297 12.5221L3.7513 9.53044C3.67415 9.45329 3.61295 9.36169 3.5712 9.26089C3.52944 9.16009 3.50795 9.05204 3.50795 8.94294C3.50795 8.83383 3.52944 8.72579 3.5712 8.62498C3.61295 8.52418 3.67415 8.43259 3.7513 8.35544C3.82845 8.27829 3.92005 8.21709 4.02085 8.17533C4.12165 8.13358 4.22969 8.11209 4.3388 8.11209C4.44791 8.11209 4.55595 8.13358 4.65675 8.17533C4.75756 8.21709 4.84915 8.27829 4.9263 8.35544L7.33464 10.7554L13.068 5.0221C13.2238 4.86629 13.4351 4.77875 13.6555 4.77875C13.8758 4.77875 14.0872 4.86629 14.243 5.0221C14.3988 5.17792 14.4863 5.38925 14.4863 5.6096C14.4863 5.82996 14.3988 6.04129 14.243 6.1971L7.91797 12.5221C7.84087 12.5994 7.7493 12.6606 7.64849 12.7025C7.54768 12.7443 7.43961 12.7658 7.33047 12.7658C7.22133 12.7658 7.11326 12.7443 7.01245 12.7025C6.91164 12.6606 6.82006 12.5994 6.74297 12.5221Z" fill="white"/>
</svg>
