<svg width="24" height="25" viewBox="0 0 24 25" fill="none" xmlns="http://www.w3.org/2000/svg">
<g clip-path="url(#clip0)">
<path d="M12 1.42725C5.63758 1.42725 0.47998 6.58485 0.47998 12.9472C0.47998 19.3096 5.63758 24.4672 12 24.4672C18.3624 24.4672 23.52 19.3096 23.52 12.9472C23.52 6.58485 18.3624 1.42725 12 1.42725ZM14.7288 9.38805H12.9972C12.792 9.38805 12.564 9.65805 12.564 10.0168V11.2672H14.73L14.4024 13.0504H12.564V18.4036H10.5204V13.0504H8.66638V11.2672H10.5204V10.2184C10.5204 8.71365 11.5644 7.49085 12.9972 7.49085H14.7288V9.38805Z" fill="#8292A6"/>
</g>
<defs>
<clipPath id="clip0">
<rect width="24" height="24" fill="white" transform="translate(0 0.947266)"/>
</clipPath>
</defs>
</svg>
