<svg width="24" height="25" viewBox="0 0 24 25" fill="none" xmlns="http://www.w3.org/2000/svg">
<path d="M15.125 12.9473C15.125 13.7761 14.7958 14.5709 14.2097 15.157C13.6237 15.743 12.8288 16.0723 12 16.0723C11.1712 16.0723 10.3763 15.743 9.79029 15.157C9.20424 14.5709 8.875 13.7761 8.875 12.9473C8.875 12.7691 8.89375 12.5952 8.92604 12.4264H7.83333V16.59C7.83333 16.8796 8.06771 17.1139 8.35729 17.1139H15.6438C15.7825 17.1137 15.9155 17.0583 16.0136 16.9601C16.1116 16.8619 16.1667 16.7288 16.1667 16.59V12.4264H15.074C15.1062 12.5952 15.125 12.7691 15.125 12.9473ZM12 15.0306C12.2737 15.0305 12.5446 14.9766 12.7974 14.8718C13.0502 14.767 13.2799 14.6134 13.4734 14.4199C13.6668 14.2263 13.8202 13.9966 13.9249 13.7437C14.0296 13.4909 14.0834 13.2199 14.0833 12.9462C14.0833 12.6726 14.0293 12.4016 13.9245 12.1488C13.8197 11.896 13.6662 11.6663 13.4726 11.4729C13.2791 11.2794 13.0493 11.126 12.7965 11.0213C12.5436 10.9167 12.2726 10.8628 11.999 10.8629C11.4463 10.863 10.9163 11.0827 10.5256 11.4736C10.1349 11.8645 9.91549 12.3946 9.91562 12.9473C9.91576 13.4999 10.1354 14.0299 10.5263 14.4206C10.9172 14.8113 11.4473 15.0307 12 15.0306ZM14.5 10.7598H15.749C15.8319 10.7598 15.9115 10.7269 15.9703 10.6683C16.0291 10.6097 16.0622 10.5302 16.0625 10.4473V9.19831C16.0625 9.11515 16.0295 9.0354 15.9707 8.9766C15.9119 8.9178 15.8321 8.88477 15.749 8.88477H14.5C14.4168 8.88477 14.3371 8.9178 14.2783 8.9766C14.2195 9.0354 14.1865 9.11515 14.1865 9.19831V10.4473C14.1875 10.6191 14.3281 10.7598 14.5 10.7598ZM12 2.94727C9.34784 2.94727 6.8043 4.00083 4.92893 5.8762C3.05357 7.75156 2 10.2951 2 12.9473C2 15.5994 3.05357 18.143 4.92893 20.0183C6.8043 21.8937 9.34784 22.9473 12 22.9473C13.3132 22.9473 14.6136 22.6886 15.8268 22.1861C17.0401 21.6835 18.1425 20.9469 19.0711 20.0183C19.9997 19.0897 20.7362 17.9874 21.2388 16.7741C21.7413 15.5608 22 14.2605 22 12.9473C22 11.634 21.7413 10.3337 21.2388 9.12043C20.7362 7.90718 19.9997 6.80478 19.0711 5.8762C18.1425 4.94761 17.0401 4.21102 15.8268 3.70847C14.6136 3.20592 13.3132 2.94727 12 2.94727ZM17.2083 16.9983C17.2083 17.6348 16.6875 18.1556 16.051 18.1556H7.94896C7.3125 18.1556 6.79167 17.6348 6.79167 16.9983V8.89622C6.79167 8.25977 7.3125 7.73893 7.94896 7.73893H16.051C16.6875 7.73893 17.2083 8.25977 17.2083 8.89622V16.9983Z" fill="#8292A6"/>
</svg>
