<svg width="24" height="25" viewBox="0 0 24 25" fill="none" xmlns="http://www.w3.org/2000/svg">
<path d="M12 2.94727C6.47708 2.94727 2 7.42435 2 12.9473C2 18.4702 6.47708 22.9473 12 22.9473C17.5229 22.9473 22 18.4702 22 12.9473C22 7.42435 17.5229 2.94727 12 2.94727ZM16.0677 11.1389C16.0719 11.2243 16.0729 11.3098 16.0729 11.3931C16.0729 13.9973 14.0927 16.9983 10.4698 16.9983C9.39926 17.0001 8.35101 16.6926 7.45104 16.1129C7.60417 16.1316 7.76146 16.1389 7.92083 16.1389C8.84375 16.1389 9.69271 15.8254 10.3667 15.2962C9.95596 15.2882 9.55799 15.1522 9.22824 14.9072C8.89849 14.6622 8.65338 14.3204 8.52708 13.9296C8.82204 13.9856 9.12589 13.9739 9.41562 13.8952C8.96984 13.805 8.56896 13.5635 8.28095 13.2115C7.99294 12.8595 7.83553 12.4187 7.83542 11.9639V11.94C8.10104 12.0868 8.40521 12.1764 8.72813 12.1868C8.31021 11.9086 8.01436 11.4813 7.90109 10.9922C7.78782 10.5031 7.86568 9.98919 8.11875 9.5556C8.61349 10.1639 9.23048 10.6616 9.92976 11.0163C10.629 11.3711 11.395 11.575 12.1781 11.615C12.0786 11.1924 12.1214 10.7487 12.3 10.353C12.4786 9.95727 12.7829 9.63163 13.1657 9.42671C13.5485 9.22178 13.9882 9.14906 14.4166 9.21984C14.8449 9.29062 15.2379 9.50094 15.5344 9.8181C15.9752 9.73089 16.3979 9.5692 16.7844 9.33997C16.6375 9.79636 16.3299 10.1839 15.9187 10.4306C16.3092 10.3836 16.6905 10.2786 17.05 10.1191C16.7859 10.5149 16.4533 10.8602 16.0677 11.1389Z" fill="#8292A6"/>
</svg>
