<svg width="24" height="25" viewBox="0 0 24 25" fill="none" xmlns="http://www.w3.org/2000/svg">
<path d="M12 2.94727C6.47708 2.94727 2 7.42435 2 12.9473C2 18.4702 6.47708 22.9473 12 22.9473C17.5229 22.9473 22 18.4702 22 12.9473C22 7.42435 17.5229 2.94727 12 2.94727ZM9.55208 17.0921H7.52708V10.5754H9.55208V17.0921ZM8.52708 9.77539C7.8875 9.77539 7.47396 9.32227 7.47396 8.76185C7.47396 8.18997 7.9 7.75039 8.55312 7.75039C9.20625 7.75039 9.60625 8.18997 9.61875 8.76185C9.61875 9.32227 9.20625 9.77539 8.52708 9.77539ZM16.9479 17.0921H14.9229V13.4806C14.9229 12.64 14.6292 12.0691 13.8969 12.0691C13.3375 12.0691 13.0052 12.4556 12.8583 12.8275C12.8042 12.9598 12.7906 13.1473 12.7906 13.3337V17.091H10.7646V12.6535C10.7646 11.84 10.7385 11.1598 10.7115 10.5743H12.4708L12.5635 11.4796H12.6042C12.8708 11.0546 13.524 10.4275 14.6167 10.4275C15.949 10.4275 16.9479 11.3202 16.9479 13.2389V17.0921Z" fill="#8292A6"/>
</svg>
