<svg width="24" height="25" viewBox="0 0 24 25" fill="none" xmlns="http://www.w3.org/2000/svg">
<g clip-path="url(#clip0)">
<path d="M12 1.42725C5.63758 1.42725 0.47998 6.58485 0.47998 12.9472C0.47998 19.3096 5.63758 24.4672 12 24.4672C18.3624 24.4672 23.52 19.3096 23.52 12.9472C23.52 6.58485 18.3624 1.42725 12 1.42725ZM12.7884 15.6772C12.0492 15.6208 11.7396 15.2548 11.1612 14.9044C10.8432 16.5736 10.4544 18.1744 9.30238 19.0108C8.94598 16.486 9.82318 14.5924 10.2312 12.58C9.53638 11.41 10.314 9.05685 11.7804 9.63525C13.584 10.3504 10.218 13.9852 12.4776 14.44C14.8368 14.9128 15.8004 10.3456 14.3376 8.86245C12.2232 6.71805 8.18518 8.81325 8.68198 11.8828C8.80198 12.6328 9.57838 12.8608 8.99158 13.8964C7.63918 13.5964 7.23478 12.5296 7.28758 11.1076C7.37038 8.77965 9.37918 7.14885 11.3928 6.92445C13.9404 6.64125 16.3308 7.85925 16.662 10.2568C17.0328 12.9616 15.5112 15.8884 12.7884 15.6772Z" fill="#8292A6"/>
</g>
<defs>
<clipPath id="clip0">
<rect width="24" height="24" fill="white" transform="translate(0 0.947266)"/>
</clipPath>
</defs>
</svg>
