<svg width="24" height="25" viewBox="0 0 24 25" fill="none" xmlns="http://www.w3.org/2000/svg">
<path d="M13.6698 12.7733L11.3302 11.6816C11.126 11.5869 10.9583 11.6931 10.9583 11.9191V13.9754C10.9583 14.2014 11.126 14.3077 11.3302 14.2129L13.6687 13.1212C13.874 13.0254 13.874 12.8691 13.6698 12.7733ZM12 2.94727C6.47708 2.94727 2 7.42435 2 12.9473C2 18.4702 6.47708 22.9473 12 22.9473C17.5229 22.9473 22 18.4702 22 12.9473C22 7.42435 17.5229 2.94727 12 2.94727ZM12 17.0098C6.88125 17.0098 6.79167 16.5483 6.79167 12.9473C6.79167 9.34622 6.88125 8.88477 12 8.88477C17.1187 8.88477 17.2083 9.34622 17.2083 12.9473C17.2083 16.5483 17.1187 17.0098 12 17.0098Z" fill="#8292A6"/>
</svg>
