<svg width="64" height="65" viewBox="0 0 64 65" fill="none" xmlns="http://www.w3.org/2000/svg">
<path d="M41.3333 46.2806H24C18.1067 46.2806 13.3333 41.5073 13.3333 35.6139C13.3251 33.1447 14.1781 30.75 15.7454 28.8419C17.3127 26.9339 19.4962 25.6321 21.92 25.1606C23.0036 23.4681 24.4937 22.0739 26.2544 21.105C28.0151 20.1362 29.9904 19.6235 32 19.6139C37.2 19.6139 41.76 23.0273 43.36 27.8539C47.5733 28.8139 50.6667 32.5206 50.6667 36.9473C50.6667 42.0939 46.48 46.2806 41.3333 46.2806ZM23.3067 30.3339C20.64 30.6806 18.6667 32.9206 18.6667 35.6139C18.6667 38.5473 21.0667 40.9473 24 40.9473H41.3333C43.5467 40.9473 45.3333 39.1606 45.3333 36.9473C45.3333 34.7339 43.5467 32.9473 41.3333 32.9473H39.0133L38.56 30.6539C38.3324 29.0742 37.5447 27.6289 36.3406 26.5814C35.1364 25.5339 33.596 24.954 32 24.9473C29.44 24.9473 27.0933 26.4673 25.9733 28.8139L25.2533 30.3339H23.3067ZM56 8.94727H7.99999C5.06666 8.94727 2.66666 11.3473 2.66666 14.2806V51.6139C2.66666 54.5473 5.06666 56.9473 7.99999 56.9473H56C58.9333 56.9473 61.3333 54.5473 61.3333 51.6139V14.2806C61.3333 11.3473 58.9333 8.94727 56 8.94727ZM56 51.6406H7.99999V14.2539H56V51.6406Z" fill="white"/>
</svg>
