<svg width="64" height="65" viewBox="0 0 64 65" fill="none" xmlns="http://www.w3.org/2000/svg">
<path d="M10.6667 48.9473V47.214C10.6667 46.3073 11.0934 45.454 11.76 45.054C16.2667 42.3606 21.4134 40.9473 26.6667 40.9473C26.7467 40.9473 26.8 40.9473 26.88 40.974C27.1467 39.1073 27.68 37.3206 28.4534 35.694C27.8667 35.6406 27.28 35.614 26.6667 35.614C20.2134 35.614 14.1867 37.4006 9.04004 40.4673C6.69337 41.854 5.33337 44.4673 5.33337 47.214V54.2806H30.0267C28.9067 52.6806 28.0267 50.8673 27.44 48.9473H10.6667ZM26.6667 32.9473C32.56 32.9473 37.3334 28.174 37.3334 22.2806C37.3334 16.3873 32.56 11.614 26.6667 11.614C20.7734 11.614 16 16.3873 16 22.2806C16 28.174 20.7734 32.9473 26.6667 32.9473ZM26.6667 16.9473C29.6 16.9473 32 19.3473 32 22.2806C32 25.214 29.6 27.614 26.6667 27.614C23.7334 27.614 21.3334 25.214 21.3334 22.2806C21.3334 19.3473 23.7334 16.9473 26.6667 16.9473ZM55.3334 43.614C55.3334 43.0273 55.2534 42.4939 55.1734 41.934L58.2134 39.2406L55.5467 34.6273L51.68 35.934C50.8267 35.214 49.8667 34.6539 48.8 34.254L48 30.2806H42.6667L41.8667 34.254C40.8 34.6539 39.84 35.214 38.9867 35.934L35.12 34.6273L32.4534 39.2406L35.4934 41.934C35.4134 42.4939 35.3334 43.0273 35.3334 43.614C35.3334 44.2006 35.4134 44.7339 35.4934 45.2939L32.4534 47.9873L35.12 52.6006L38.9867 51.2939C39.84 52.0139 40.8 52.574 41.8667 52.9739L42.6667 56.9473H48L48.8 52.9739C49.8667 52.574 50.8267 52.0139 51.68 51.2939L55.5467 52.6006L58.2134 47.9873L55.1734 45.2939C55.2534 44.7339 55.3334 44.2006 55.3334 43.614ZM45.3334 48.9473C42.4 48.9473 40 46.5473 40 43.614C40 40.6806 42.4 38.2806 45.3334 38.2806C48.2667 38.2806 50.6667 40.6806 50.6667 43.614C50.6667 46.5473 48.2667 48.9473 45.3334 48.9473Z" fill="white"/>
</svg>
